<svg height="512" viewBox="0 0 512 512" width="512" xmlns="http://www.w3.org/2000/svg"><g id="flat"><path d="m472.47 415.29c0 40.16-96.92 72.71-216.47 72.71s-216.47-32.55-216.47-72.71a25.487 25.487 0 0 1 .32-4c6.19-38.29 100.6-68.7 216.15-68.7s209.96 30.41 216.15 68.7a25.487 25.487 0 0 1 .32 4z" fill="#c3c3c3"/><path d="m472.15 411.29c-6.19 38.3-100.6 68.71-216.15 68.71s-209.96-30.41-216.15-68.71c6.19-38.29 100.6-68.7 216.15-68.7s209.96 30.41 216.15 68.7z" fill="#dbdbdb"/><path d="m408 208h-48v32h48a24 24 0 0 1 24 24 24 24 0 0 1 -24 24h-48v32h48a56 56 0 0 0 56-56 56 56 0 0 0 -56-56z" fill="#cbcbcb"/><path d="m256 416c61.856 0 112-48.459 112-108.235v-108.236c0-29.888-50.144-54.117-112-54.117s-112 24.229-112 54.117v108.236c0 59.776 50.144 108.235 112 108.235z" fill="#ebebeb"/><path d="m368 199.53c0 7.7-3.33 15.02-9.32 21.65-17.28 19.11-56.75 32.47-102.68 32.47s-85.4-13.36-102.68-32.47c-5.99-6.63-9.32-13.95-9.32-21.65 0-29.89 50.14-54.12 112-54.12s112 24.23 112 54.12z" fill="#cbcbcb"/><path d="m358.68 221.18a56.608 56.608 0 0 1 -5.38 5.18c-19.29 16.3-55.64 27.29-97.3 27.29s-78.01-10.99-97.3-27.29a56.608 56.608 0 0 1 -5.38-5.18c17.28-19.11 56.75-32.47 102.68-32.47s85.4 13.36 102.68 32.47z" fill="#975712"/><path d="m353.3 226.36c-19.29 16.3-55.64 27.29-97.3 27.29s-78.01-10.99-97.3-27.29c19.29-16.31 55.64-27.3 97.3-27.3s78.01 10.99 97.3 27.3z" fill="#a45e14"/><path d="m256 168a8 8 0 0 1 -8-8c0-13.873 5.248-21.307 9.464-27.281 3.07-4.348 5.494-7.783 6.274-13.755a8 8 0 1 1 15.865 2.072c-1.291 9.894-5.6 16-9.067 20.91-3.794 5.375-6.536 9.26-6.536 18.054a8 8 0 0 1 -8 8z" fill="#e2aa59"/><path d="m266.734 104a7.994 7.994 0 0 1 -6.764-3.717c-.769-1.214-1.613-2.409-2.506-3.675-4.216-5.972-9.464-13.408-9.464-27.279s5.248-21.3 9.464-27.278c3.795-5.375 6.536-9.258 6.536-18.051a8 8 0 0 1 16 0c0 13.872-5.248 21.305-9.464 27.278-3.8 5.375-6.536 9.258-6.536 18.051s2.741 12.678 6.536 18.054c.965 1.369 1.965 2.784 2.947 4.333a8 8 0 0 1 -6.749 12.284z" fill="#f7ba61"/><path d="m320 184a8 8 0 0 1 -8-8c0-13.873 5.248-21.307 9.464-27.281 3.794-5.375 6.536-9.26 6.536-18.054s-2.742-12.679-6.536-18.055c-4.216-5.973-9.464-13.41-9.464-27.281a8 8 0 0 1 16 0c0 8.8 2.742 12.679 6.536 18.055 4.216 5.973 9.464 13.408 9.464 27.281s-5.248 21.307-9.464 27.281c-3.794 5.375-6.536 9.26-6.536 18.054a8 8 0 0 1 -8 8z" fill="#f7ba61"/><path d="m327.993 70.665a8 8 0 0 1 -6.529-12.614c3.795-5.375 6.536-9.258 6.536-18.051a8 8 0 0 1 16 0c0 13.872-5.248 21.305-9.464 27.278a7.992 7.992 0 0 1 -6.543 3.387z" fill="#e2aa59"/><path d="m192 184a8 8 0 0 1 -8-8c0-13.873 5.248-21.307 9.464-27.281 3.794-5.375 6.536-9.26 6.536-18.054a24.332 24.332 0 0 0 -4.029-14.38 8 8 0 1 1 13.511-8.57 40.3 40.3 0 0 1 6.518 22.95c0 13.873-5.248 21.307-9.464 27.281-3.795 5.375-6.536 9.26-6.536 18.054a8 8 0 0 1 -8 8z" fill="#f7ba61"/><path d="m192.071 96a8 8 0 0 1 -7.979-7.521c-.061-1.022-.092-2.083-.092-3.15 0-13.871 5.248-21.3 9.464-27.278 3.795-5.375 6.536-9.258 6.536-18.051a8 8 0 0 1 16 0c0 13.872-5.248 21.305-9.464 27.278-3.795 5.375-6.536 9.258-6.536 18.051 0 .749.021 1.487.064 2.192a8 8 0 0 1 -7.507 8.465c-.157.014-.326.014-.486.014z" fill="#e2aa59"/><g fill="#c3c3c3"><path d="m368 208h16v32h-16z"/><path d="m368 288h16v32h-16z"/></g></g></svg>